# xmcd
#
# Track frame offsets:
#	150
#	10372
#	23280
#	36507
#	48250
#	60152
#	72297
#	84897
#	96047
#	108725
#	122430
#	136295
#	149887
#	162965
#	174467
#	187092
#	201607
#	215390
#
# Disc length: 3035 seconds
#
# Revision: 1
# Processed by: cddbd v1.5.2PL0 Copyright (c) Steve Scherf et al.
# Submitted via: audiograbber 1.82.02
#
DISCID=fe0bd912
DTITLE=John Lee Hooker - I'm John Lee Hooker
DYEAR=1997
DGENRE=Blues
TTITLE0=Dimples
TTITLE1=Hobo Blues
TTITLE2=I'm So Excited
TTITLE3=I Love You Honey
TTITLE4=Boogie Chillun
TTITLE5=Little Wheel
TTITLE6=I'm in the Mood
TTITLE7=Maudie
TTITLE8=Crawlin' King Snake
TTITLE9=Every Night
TTITLE10=Time Is Marching
TTITLE11=Baby Lee
TTITLE12=Unfriendly Woman
TTITLE13=Wheel and Deal
TTITLE14=Mambo Chillun
TTITLE15=I'm So Worried Baby
TTITLE16=The Road Is So Rough
TTITLE17=Trouble Blues
EXTD=
EXTT0=
EXTT1=
EXTT2=
EXTT3=
EXTT4=
EXTT5=
EXTT6=
EXTT7=
EXTT8=
EXTT9=
EXTT10=
EXTT11=
EXTT12=
EXTT13=
EXTT14=
EXTT15=
EXTT16=
EXTT17=
PLAYORDER=
